<svg xmlns="http://www.w3.org/2000/svg" viewBox="0 0 250 250"><defs><style>.cls-1{fill:#1e90ff;}.cls-2{fill:#fff;}</style></defs><title>Recurso 5</title><g id="Capa_2" data-name="Capa 2"><g id="Capa_1-2" data-name="Capa 1"><circle class="cls-1" cx="125" cy="125" r="125"/><circle class="cls-1" cx="125" cy="125" r="115"/><polygon class="cls-2" points="224.15 111.09 115 111.09 120.77 121.09 218.38 121.09 224.15 111.09"/><path class="cls-2" d="M159.44,234.89a114.63,114.63,0,0,0,20-8.34V131.09h-20Z"/><path class="cls-2" d="M220.44,131.09h-20v81.09a115.35,115.35,0,0,0,20-22.36Z"/><path class="cls-2" d="M139.44,131.09h-20V239.84q3,.16,6,.16a115.54,115.54,0,0,0,14-.85Z"/><path class="cls-2" d="M232.53,83.09H80.44a25,25,0,1,0,24.68,29H87.36a8,8,0,1,1-6.92-12H237.72A113.47,113.47,0,0,0,232.53,83.09Z"/><path class="cls-2" d="M232.48,83h0a1.17,1.17,0,0,1,.05.11h0A.37.37,0,0,0,232.48,83Z"/></g></g></svg>