<svg xmlns="http://www.w3.org/2000/svg" viewBox="0 0 600 200"><defs><style>.cls-1{fill:none;}.cls-2{fill:#fff;}</style></defs><title>Recurso 2</title><g id="Capa_2" data-name="Capa 2"><g id="Capa_1-2" data-name="Capa 1"><rect class="cls-1" width="600" height="200"/><path class="cls-2" d="M50,175.9V55.05A43.67,43.67,0,0,1,52.2,40.3a24,24,0,0,1,6-9.53,22.24,22.24,0,0,1,9.13-5,42.6,42.6,0,0,1,22.41,0,22.14,22.14,0,0,1,8.72,4.84,22.81,22.81,0,0,1,5.72,8.84,37.22,37.22,0,0,1,2,13.72l-.38,34.38a49,49,0,0,1-1.81,13,35,35,0,0,1-5,10.69,27.94,27.94,0,0,1-8,7.66,26.3,26.3,0,0,1-10.88,3.84,32,32,0,0,1-8.41,0q0,24.66-.25,49.35Zm35-125c0-5.93-2.1-8.87-6.41-8.78s-6.5,3.13-6.53,9.38q0,26.81-.25,53.66l4.59-.47A8.27,8.27,0,0,0,82.2,101a16.4,16.4,0,0,0,2.5-9.69q.17-20.25.32-40.37Z"/><path class="cls-2" d="M111.77,52.68a36.88,36.88,0,0,1,2.37-13.6,22.13,22.13,0,0,1,6.25-8.81,23.7,23.7,0,0,1,9.19-4.66,46.59,46.59,0,0,1,22.57,0,23.21,23.21,0,0,1,9,4.5,21,21,0,0,1,5.93,8.22,32.43,32.43,0,0,1,2,12.75l-1.22,81.6a34.36,34.36,0,0,1-2.41,13.1,26.88,26.88,0,0,1-6.25,9.09,29.11,29.11,0,0,1-9.09,5.84A49.51,49.51,0,0,1,139,163.84a43.81,43.81,0,0,1-11.32.47,19.1,19.1,0,0,1-8.93-3.13,16.69,16.69,0,0,1-5.88-7.78,34.35,34.35,0,0,1-2-13.25Q111.24,96.34,111.77,52.68ZM147,49c0-5.5-2-8.22-6.25-8.13s-6.53,2.91-6.6,8.5q-.59,45.11-1.25,90.35c0,5.6,2,8.06,6.25,7.47s6.5-3.66,6.5-9.09Q146.33,93.42,147,49Z"/><path class="cls-2" d="M211.24,150.71q.28-21.24.53-42.47c0-7.84-2.59-11.59-8.09-11.31l-4.84.28q-.34,27.38-.72,54.78c-7.5.79-14.94,1.63-22.41,2.57q.78-52,1.53-103.88A32.85,32.85,0,0,1,179.62,38a20.89,20.89,0,0,1,6.25-8.16A24.08,24.08,0,0,1,195,25.52a47.18,47.18,0,0,1,11.41-1.31,43.82,43.82,0,0,1,10.88,1.28,21.88,21.88,0,0,1,8.53,4.28,19.28,19.28,0,0,1,5.59,7.78,31.47,31.47,0,0,1,1.88,12.16l-.19,19.59a22.09,22.09,0,0,1-3.81,13.47,17.83,17.83,0,0,1-12.22,6,19.19,19.19,0,0,1,12.5,4.63,14.72,14.72,0,0,1,3.87,11.09q-.24,22.13-.43,44.32Q222,149.71,211.24,150.71Zm1.28-103.13c0-5.15-2.06-7.69-6.4-7.66s-6.53,2.69-6.6,7.88l-.46,35.41,4.81-.22a8,8,0,0,0,6.25-2.75,13.63,13.63,0,0,0,2.28-8.59Z"/><path class="cls-2" d="M254.53,147.71l.75-104.63-17.85.16V27.61H295V43H277.28l-.38,103.94C269.53,147.09,262,147.43,254.53,147.71Z"/><path class="cls-2" d="M334.28,147.24q0-20.69-.22-41.31c0-7.59-2.81-11.47-8.34-11.53h-4.84v52.53q-11.33-.21-22.66-.22V49.18a28,28,0,0,1,2.22-11.85,19.33,19.33,0,0,1,6-7.69,25.41,25.41,0,0,1,9.09-4.09,50.05,50.05,0,0,1,11.38-1.25,45.11,45.11,0,0,1,10.91,1.25,22.55,22.55,0,0,1,8.62,4.22,19.7,19.7,0,0,1,5.72,7.78,32,32,0,0,1,2.09,12.09l.19,19.6a20.4,20.4,0,0,1-3.56,13.16,16.36,16.36,0,0,1-12.16,5.18A21,21,0,0,1,351.25,93a15.63,15.63,0,0,1,4.1,11.31q.18,22,.4,44.07C348.75,147.84,341.53,147.43,334.28,147.24Zm-.53-100.41c0-5-2.22-7.53-6.56-7.53s-6.5,2.47-6.5,7.47v34h4.84a7.65,7.65,0,0,0,6.1-2.31,12.52,12.52,0,0,0,2.12-8.25C333.81,62.43,333.78,54.64,333.75,46.83Z"/><path class="cls-2" d="M400.66,151.87,400,102.71q-6.52-.42-13.1-.75.31,24.29.6,48.63-11.25-1-22.54-1.78-.47-50.48-1-101a21.33,21.33,0,0,1,8.13-17.31,27.27,27.27,0,0,1,9.06-4.69,38.81,38.81,0,0,1,11.38-1.62,37.46,37.46,0,0,1,11.22,1.65,27,27,0,0,1,9.09,4.88,23.26,23.26,0,0,1,6.25,7.81,23.78,23.78,0,0,1,2.38,10.31q.75,52.69,1.5,105.51C415.54,153.46,408.13,152.62,400.66,151.87Zm-1.4-104.13c0-5.25-2.25-7.91-6.6-7.94s-6.47,2.5-6.4,7.69l.46,38.59,13.07.6Q399.56,67.24,399.26,47.74Z"/><path class="cls-2" d="M466.82,160.62q-.75-55.75-1.53-111.32c0-5.59-2.28-8.41-6.59-8.5s-6.47,2.66-6.25,8.13q.81,54.75,1.56,109.69c-7.38-1.09-14.78-2.16-22.22-3.12q-.75-52.41-1.53-104.64a31.72,31.72,0,0,1,2-12.65A20.05,20.05,0,0,1,438.23,30a23.72,23.72,0,0,1,9-4.41,45,45,0,0,1,11.38-1.37,43,43,0,0,1,11.22,1.4A22.94,22.94,0,0,1,479,30.36a23.38,23.38,0,0,1,6.25,8.78,38.07,38.07,0,0,1,2.38,13.69q.58,55.67,1.28,111.48Q477.79,162.4,466.82,160.62Z"/><path class="cls-2" d="M549.55,152c0,10.5-2.25,17.43-6.75,20.72s-11.07,4-19.75,2.31a43.19,43.19,0,0,1-10.63-3.56A27.56,27.56,0,0,1,504,165a29.26,29.26,0,0,1-5.5-9.91A46.31,46.31,0,0,1,496.48,141c0-7.53,0-15.09-.25-22.62l20.13,2.47.19,26.19c0,5.93,2.18,9.37,6.4,10a4.31,4.31,0,0,0,4.72-1.66,15.32,15.32,0,0,0,1.56-8.31v-12.5a39.6,39.6,0,0,0-1.12-8.6,24.07,24.07,0,0,0-3.81-8.31q-9.13-12.72-18.38-25A38.46,38.46,0,0,1,496.54,66c0-4.53,0-9-.15-13.53,0-10.69,2.06-18,6.53-22.16s11.19-6.25,20.19-6.25a36.52,36.52,0,0,1,10.94,1.53,19.93,19.93,0,0,1,8.47,5.28,24.45,24.45,0,0,1,5.53,9.56A49.05,49.05,0,0,1,550,55.27V74.49l-20.16-1.31V51.3c0-6.06-2.16-9.13-6.44-9.22s-6.25,3.13-6.25,9.56v9.72a32.37,32.37,0,0,0,.25,5.16,21,21,0,0,0,.72,4,15,15,0,0,0,1.44,3.38,34.57,34.57,0,0,0,2.34,3.43q9.75,12.75,19.38,26.13a42.15,42.15,0,0,1,6.25,13,63.72,63.72,0,0,1,2.09,17.22Z"/></g></g></svg>