<svg xmlns="http://www.w3.org/2000/svg" viewBox="0 0 600 200"><defs><style>.cls-1{fill:none;}.cls-2{fill:#fff;}</style></defs><title>Recurso 2</title><g id="Capa_2" data-name="Capa 2"><g id="Capa_1-2" data-name="Capa 1"><rect class="cls-1" width="600" height="200"/><path class="cls-2" d="M180.37,9.1a56.3,56.3,0,1,0,56.3,56.3A56.3,56.3,0,0,0,180.37,9.1Zm46.44,39.16-2.81.25v1.7h-.87l-1-.69-4.9-1.21V45.15l-6.13.49-1.93,1h-2.52l-1.17-.1-3,1.64v3.09l-6.07,4.38.49,1.86h1.24l-.32,1.8-.86.32v4.63l5.25,6h2.29l.13-.36h4.11L210,68.78h2.31l1.31,1.31,3.46.36-.45,4.6,3.86,6.79-2.1,3.88.17,1.83,1.6,1.58v4.4l2.09,2.82v2.81A53.77,53.77,0,0,1,126.89,70.9c0-.42-.07-.84-.1-1.26-.13-1.41-.17-2.82-.17-4.23v-3a4.76,4.76,0,0,1,.07-1v-.25a53.43,53.43,0,0,1,4.22-17v2.94l2.3,1.12v4.33l2.19,3.74,1.76.26.24-1.27L135.33,52l-.42-3.14h1.24l.52,3.24,3,4.41-.79,1.4,1.93,2.95,4.8,1.21v-.79l1.9.29L147.38,63l1.51.27,2.32.65,3.26,3.58,4.23.33.42,3.42-2.82,2-.12,3.06-.43,1.86,4.14,5.2.34,1.8s1.49.38,1.69.38S165.28,88,165.28,88v9.37l1.14.32-.77,4.35,1.93,2.55-.37,4.31,2.55,4.43,3.24,2.81h3.26l.32-1-2.42-2,.17-1,.42-1.23v-1.14h-1.63l-.82-1,1.34-1.31.2-1-1.51-.43.07-.92,2.15-.32,3.27-1.56,1.08-2,3.42-4.38-.77-3.42,1.07-1.8,3.14.07L187.87,90l.68-6.6,2.35-3,.39-1.9-2.12-.69-1.41-2.35h-4.83l-3.81-1.41-.2-2.81-1.29-2.31h-3.47l-2-3.12-1.8-.86-.1,1L167,66.1l-1.17-1.67-3.39-.68L159.67,67l-4.35-.86L155,61.19l-3.19-.56,1.31-2.41-.4-1.41-4.22,2.82-2.64-.3-.95-2.08.58-2.13,1.41-2.67,3.36-1.7h6.48v2l2.32,1.07-.2-3.37,1.69-1.68,3.36-2.23.27-1.56,3.36-3.51,3.59-2-.32-.27L173.33,37l.88.22.39.52,1-1,.22-.13-1-.13-1-.32v-1l.55-.42h1.21L176,35l.49.94.59-.07v-.08h.16l1.67-.26.25-.85,1,.26v.88l-.88.63.13,1,3,.94h.72V37.05l-2.41-1.11-.14-.65,2-.64.1-1.93-2.1-1.28-.11-3.32-2.82,1.4h-1l.26-2.47L173,26.13l-1.6,1.21V31.1l-2.91.92-1.17,2.4-1.28.24V31.52l-2.71-.36-1.4-.92-.55-2,4.9-2.82,2.37-.72.24,1.6h1.41l.1-.82,1.41-.2V25l-.62-.23-.14-.84,1.73-.17,1.05-1.09.3-.32,3.63-.46,1.56,1.33-4.22,2.25,5.32,1.24.69-1.76h2.32l.85-1.56L182.57,23v-2l-5.13-2.29-3.56.39-2,1,.12,2.59-2.08-.32-.34-1.41,2-1.83-3.66-.2-1,.33-.45,1.21,1.4.27-.29,1.4-2.32.16-.36.91-3.36.07a10.15,10.15,0,0,0-.22-1.9h2.64l2-2L164.85,19l-1.48,1.41L161,20.24l-1.41-2h-3.1l-3.23,2.42h3l.26.87-.76.72,3.27.1.52,1.18-3.72-.13-.16-.91L153.28,22,152,21.28H150a53.35,53.35,0,0,1,66.58,4.35l-2,.78-1.08,1.14.26,1.34,1.3.2.79,1.95,2.25-.91.36,2.65h-.66l-1.85-.26-2.06.33-2,2.81-2.81.46-.4,2.41,1.2.3-.35,1.57-2.82-.59-2.6.59-.52,1.41.42,3,1.53.72h2.55l1.71-.14.54-1.41L213,40.49l1.77.35,1.65-1.46.32,1.21,4.22,2.9-.52.71-1.92-.12.74,1.08,1.18.25,1.41-.59V43.13l.62-.29-.49-.52-2.82-1.61-.8-2.19h2.39l.75.76L223.58,41l.1,2.12,2.11,2.28.79-3.09,1.4-.82.27,2.55,1.41,1.56h.59c.59,1.5,1.14,3,1.6,4.57h-2.43Z"/><path class="cls-2" d="M147.65,124.19A247.8,247.8,0,0,0,110,144.06a329.76,329.76,0,0,1,56.76-13.12A70.19,70.19,0,0,1,147.65,124.19Z"/><path class="cls-2" d="M490,131.27V97.39C443.43,81.65,373.61,76.48,300.8,85.68c-20.18,2.55-39.81,5.83-58.55,9.75a70.39,70.39,0,0,1-10.09,14.08A566.42,566.42,0,0,1,302.81,104v4.09a625.42,625.42,0,0,0-73,3.91,70.61,70.61,0,0,1-23,15.11,478.46,478.46,0,0,1,60.11.9C365.71,135.7,455.1,159.84,490,190.9V143.52c-22.52-13.52-56.23-23.92-99.22-29.8v-6.13C431.8,112,465.36,120.23,490,131.27ZM385.15,113c-19.37-2.45-40.54-4-63.34-4.62-4.91-.12-9.85-.19-14.77-.22v-4.22c10.06-.15,20.18,0,30.26.18q25.33.64,47.85,2.81Z"/><path class="cls-2" d="M264,77.53V23.11a19.73,19.73,0,0,1,1-6.65,10.8,10.8,0,0,1,2.72-4.29A10.15,10.15,0,0,1,271.8,9.9a19.19,19.19,0,0,1,10.09,0,9.94,9.94,0,0,1,3.92,2.19,10.12,10.12,0,0,1,2.58,4,16.83,16.83,0,0,1,.9,6.18l-.17,15.48a21.79,21.79,0,0,1-.82,5.84,15.56,15.56,0,0,1-2.25,4.81,12.59,12.59,0,0,1-3.6,3.45,11.9,11.9,0,0,1-4.9,1.73,14.07,14.07,0,0,1-3.78,0q0,11.11-.12,22.23Zm15.77-56.3c0-2.67-.95-4-2.89-3.95s-2.93,1.41-2.94,4.22q0,12.08-.11,24.17l2.07-.21a3.78,3.78,0,0,0,2.6-1.66,7.49,7.49,0,0,0,1.13-4.37q.06-9.12.14-18.18Z"/><path class="cls-2" d="M291.79,22a16.68,16.68,0,0,1,1.07-6.13,10,10,0,0,1,2.82-4,10.63,10.63,0,0,1,4.14-2.1,20.8,20.8,0,0,1,10.16,0,10.32,10.32,0,0,1,4,2,9.42,9.42,0,0,1,2.68,3.7,14.56,14.56,0,0,1,.91,5.74l-.55,36.75A15.42,15.42,0,0,1,316,64a12.22,12.22,0,0,1-2.82,4.1,13.39,13.39,0,0,1-4.09,2.63,22.09,22.09,0,0,1-5,1.41,19.8,19.8,0,0,1-5.1.21,8.56,8.56,0,0,1-4-1.41,7.6,7.6,0,0,1-2.65-3.5,15.55,15.55,0,0,1-.91-6Q291.56,41.71,291.79,22Zm15.85-1.68c0-2.48-.91-3.7-2.81-3.66s-2.94,1.31-3,3.83q-.27,20.31-.57,40.69c0,2.52.92,3.63,2.82,3.36S307,62.94,307,60.49Q307.36,40.39,307.64,20.36Z"/><path class="cls-2" d="M336.59,66.19q.14-9.57.24-19.13c0-3.53-1.17-5.22-3.64-5.09l-2.18.12-.33,24.67c-3.38.36-6.73.74-10.09,1.16q.35-23.41.69-46.78a14.8,14.8,0,0,1,1.07-5.7,9.52,9.52,0,0,1,2.81-3.68,11,11,0,0,1,4.13-1.95,20.69,20.69,0,0,1,5.14-.59,19.64,19.64,0,0,1,4.89.57,9.85,9.85,0,0,1,3.85,1.93,8.67,8.67,0,0,1,2.51,3.5,14.24,14.24,0,0,1,.85,5.48l-.09,8.82a9.91,9.91,0,0,1-1.71,6.07,8.08,8.08,0,0,1-5.51,2.72,8.64,8.64,0,0,1,5.63,2.08,6.62,6.62,0,0,1,1.75,5q-.12,10-.2,20Q341.45,65.75,336.59,66.19Zm.58-46.45c0-2.32-.93-3.46-2.89-3.45s-2.94,1.21-3,3.55l-.21,16,2.17-.1a3.65,3.65,0,0,0,2.82-1.24,6.16,6.16,0,0,0,1-3.87Z"/><path class="cls-2" d="M356.09,64.84l.33-47.12-8,.07v-7h25.94v6.92h-8l-.17,46.81C362.84,64.55,359.45,64.71,356.09,64.84Z"/><path class="cls-2" d="M392,64.62q0-9.32-.1-18.6c0-3.42-1.26-5.17-3.75-5.19H386V64.48q-5.08-.09-10.2-.09V20.46a12.64,12.64,0,0,1,1-5.33,8.71,8.71,0,0,1,2.72-3.47,11.46,11.46,0,0,1,4.09-1.84,22.63,22.63,0,0,1,5.12-.56,20.86,20.86,0,0,1,4.92.56,10.12,10.12,0,0,1,3.88,1.9,8.94,8.94,0,0,1,2.58,3.5,14.49,14.49,0,0,1,.94,5.45l.08,8.83a9.16,9.16,0,0,1-1.6,5.92A7.38,7.38,0,0,1,394,37.76a9.42,9.42,0,0,1,5.63,2.42,7,7,0,0,1,1.85,5.09q.08,9.93.18,19.85C398.52,64.89,395.27,64.71,392,64.62Zm-.24-45.22c0-2.25-1-3.39-2.95-3.39s-2.93,1.11-2.93,3.37V34.69h2.18a3.45,3.45,0,0,0,2.75-1,5.64,5.64,0,0,0,.95-3.72C391.79,26.43,391.78,22.92,391.76,19.4Z"/><path class="cls-2" d="M421.9,66.71l-.3-22.14q-2.94-.2-5.9-.34.15,10.94.27,21.9-5.07-.43-10.15-.8-.21-22.72-.45-45.47a9.59,9.59,0,0,1,3.66-7.8A12.21,12.21,0,0,1,413.11,10a17.16,17.16,0,0,1,5.13-.73,17,17,0,0,1,5.05.74,12.11,12.11,0,0,1,4.09,2.2,10.27,10.27,0,0,1,2.82,3.52,10.63,10.63,0,0,1,1.07,4.64q.33,23.73.67,47.51C428.59,67.43,425.26,67.05,421.9,66.71Zm-.64-46.9c0-2.36-1-3.56-3-3.57s-2.91,1.12-2.88,3.46l.21,17.38,5.88.27Q421.41,28.59,421.26,19.81Z"/><path class="cls-2" d="M451.69,70.65q-.33-25.11-.69-50.13c0-2.52-1-3.79-3-3.83s-2.91,1.19-2.81,3.66q.36,24.66.7,49.4c-3.32-.49-6.66-1-10-1.41q-.33-23.6-.69-47.12a14.41,14.41,0,0,1,.92-5.7,9,9,0,0,1,2.67-3.7,10.74,10.74,0,0,1,4.07-2A20.1,20.1,0,0,1,448,9.22a19.18,19.18,0,0,1,5.06.63A10.33,10.33,0,0,1,457.17,12,10.56,10.56,0,0,1,460,15.94a17.28,17.28,0,0,1,1.07,6.17q.27,25.07.58,50.2C458.3,71.74,455,71.18,451.69,70.65Z"/><path class="cls-2" d="M488.94,66.78c0,4.73-1,7.85-3,9.33s-5,1.81-8.89,1a19.29,19.29,0,0,1-4.79-1.6,12.46,12.46,0,0,1-3.77-2.92A12.94,12.94,0,0,1,466,68.17a20.46,20.46,0,0,1-.93-6.36c0-3.39,0-6.8-.12-10.19L474,52.73l.08,11.8c0,2.67,1,4.22,2.89,4.5a1.93,1.93,0,0,0,2.12-.75,7,7,0,0,0,.71-3.74V58.91a18.09,18.09,0,0,0-.51-3.87,10.71,10.71,0,0,0-1.72-3.74Q473.46,45.57,469.3,40a17.37,17.37,0,0,1-4.23-12c0-2,0-4.07-.07-6.09,0-4.82.93-8.12,2.95-10s5-2.82,9.09-2.82a16.67,16.67,0,0,1,4.92.69,9,9,0,0,1,3.82,2.38,11,11,0,0,1,2.49,4.31,21.87,21.87,0,0,1,.87,6.68v8.66l-9.08-.59V21.42q0-4.09-2.9-4.15c-1.92-.05-2.81,1.4-2.81,4.3V26a14.83,14.83,0,0,0,.11,2.32,9.2,9.2,0,0,0,.33,1.8,7,7,0,0,0,.64,1.52,15.13,15.13,0,0,0,1.06,1.55q4.39,5.74,8.72,11.77A18.63,18.63,0,0,1,488,50.78a28.52,28.52,0,0,1,.94,7.75Z"/></g></g></svg>