<svg xmlns="http://www.w3.org/2000/svg" viewBox="0 0 600 600"><defs><style>.cls-1,.cls-5{fill:#0696de;}.cls-2,.cls-4{fill:#fff;}.cls-3,.cls-6{fill:#34495e;}.cls-4,.cls-5,.cls-6,.cls-7,.cls-8{fill-rule:evenodd;}.cls-7{fill:#cecdc9;}.cls-8{fill:#0392d4;}.cls-9{fill:#848280;}</style></defs><title>Recurso 3</title><g id="Capa_2" data-name="Capa 2"><g id="Capa_1-2" data-name="Capa 1"><rect class="cls-1" y="300" width="300" height="150"/><rect class="cls-2" width="600" height="300"/><rect class="cls-3" y="450" width="300" height="150"/><rect class="cls-2" x="300" y="450" width="300" height="150"/><path class="cls-4" d="M65,310.49a40,40,0,1,0,40,40A40,40,0,0,0,65,310.49Z"/><path class="cls-5" d="M65,312.3a38,38,0,0,1,25.71,9.93l-1.41.56-.77.81.19.95.92.14.56,1.39,1.6-.65.26,1.88h-.47l-1.32-.18-1.46.23-1.42,2-2,.33-.28,1.71.85.21-.25,1.12-2-.42-1.85.42-.37,1,.3,2.13,1.09.51,1.81,0,1.21-.1.39-1,1.9-2.48,1.26.25L90.62,332l.23.86,3,2.06-.37.51-1.37-.09.53.77.84.18,1-.42,0-1.2.44-.21-.35-.37-2-1.14L92,331.39H93.7l.53.54,1.47,1.25.07,1.51,1.5,1.62.56-2.2,1-.58.19,1.81,1,1.11h.42c.42,1.07.81,2.16,1.14,3.25H99.85L98,338.31l-2,.18v1.21h-.62l-.68-.49-3.48-.86V336.1l-4.36.35-1.37.72H83.7l-.83-.07-2.12,1.16v2.2l-4.31,3.11.35,1.32h.88l-.23,1.28-.61.23,0,3.29,3.73,4.25h1.63l.09-.26h2.92l.84-.79h1.64l.93.93,2.46.26-.32,3.27,2.74,4.82L92,364.93l.12,1.3,1.14,1.12v3.13l1.48,2v2A38.21,38.21,0,0,1,27,354.4h0c0-.3-.05-.6-.07-.9v0c-.09-1-.12-2-.12-3v-.67l0-.56,0-.55v-.33c0-.25,0-.49.05-.72l0-.18a37.85,37.85,0,0,1,3-12.11v2.09l1.63.79v3.08L33.05,344l1.25.18.17-.9L33,341l-.3-2.23h.88l.37,2.3,2.16,3.13-.56,1,1.37,2.09,3.41.86v-.56l1.35.21-.12,1,1.07.19,1.65.46L46.6,352l3,.23.3,2.43-2,1.42-.09,2.18-.3,1.32,2.94,3.69.24,1.28s1.06.27,1.2.27,2.39,1.74,2.39,1.74v6.66l.81.23-.55,3.09,1.37,1.81-.26,3.06,1.81,3.15,2.3,2,2.32,0,.23-.74-1.72-1.44.12-.69.3-.88L61,382l-1.16,0-.58-.72.95-.93.14-.69-1.07-.31.05-.65,1.53-.23,2.32-1.11.77-1.44,2.43-3.11-.55-2.43.76-1.28,2.23.05,1.51-1.18.48-4.69,1.67-2.13.28-1.35-1.51-.49-1-1.67-3.43,0-2.71-1-.14-2L63.05,353,60.59,353l-1.41-2.22-1.28-.61-.07.68-2.3.14-.83-1.19-2.41-.48-2,2.29L47.2,351l-.23-3.5-2.27-.4.93-1.71-.28-1-3,2-1.88-.21-.67-1.48.41-1.51,1-1.9,2.39-1.21h4.6v1.4l1.65.76-.14-2.39,1.2-1.2,2.39-1.58.19-1.11,2.39-2.49,2.55-1.41-.23-.19L60,330.28l.62.16.28.37.68-.72.16-.09-.72-.09-.74-.23V329l.39-.3.86,0,.37.19.35.67.42-.05v-.06l.11,0,1.19-.18.18-.61.67.19v.62l-.62.45h0l.09.69,2.16.67v0l.51,0,0-.93-1.71-.79-.1-.46,1.42-.46.07-1.37-1.49-.91L65.07,324l-2,1h-.74l.18-1.76-2.78-.65-1.14.86v2.67l-2.07.65-.83,1.71-.91.17v-2.23l-1.92-.26-1-.65-.39-1.41,3.48-2,1.69-.51.17,1.13,1,0,.07-.58,1-.14,0-.21-.44-.16-.1-.6,1.23-.12.75-.77,0,0h0l.21-.23,2.58-.33,1.11.95-3,1.6,3.78.88.49-1.25h1.65l.6-1.11-1.18-.28v-1.39l-3.64-1.63-2.53.28-1.44.74.09,1.84-1.48-.23-.24-1,1.44-1.3-2.6-.14-.74.23-.32.86,1,.19-.21,1-1.65.11-.25.65-2.39.05a6.91,6.91,0,0,0-.16-1.35l1.88,0,1.41-1.4-.76-.39-1.05,1-1.72-.09-1-1.44H48l-2.3,1.72h2.11l.19.62-.54.51,2.32.07.37.84-2.64-.09-.12-.65-1.64-.35-.89-.49H43.4A38,38,0,0,1,65,312.3Z"/><path class="cls-2" d="M41.75,392.26A176,176,0,0,0,15,406.38a233.85,233.85,0,0,1,40.33-9.32A49.75,49.75,0,0,1,41.75,392.26Z"/><path class="cls-2" d="M285,397.29V373.22c-33.09-11.18-82.7-14.86-134.43-8.32-14.34,1.81-28.29,4.14-41.6,6.93a50.38,50.38,0,0,1-7.17,10,403,403,0,0,1,50.2-3.91v2.9a445.41,445.41,0,0,0-51.9,2.78,50.24,50.24,0,0,1-16.32,10.74,339.29,339.29,0,0,1,42.71.64c70.2,5.46,133.71,22.61,158.51,44.68V406c-16-9.61-39.95-17-70.5-21.18v-4.35C243.65,383.61,267.49,389.45,285,397.29Zm-74.5-13c-13.76-1.74-28.8-2.86-45-3.28-3.49-.09-7-.14-10.5-.16v-3c7.15-.1,14.34-.05,21.5.13q18,.47,34,2.05Z"/><path class="cls-2" d="M124.41,359.11V320.44a13.9,13.9,0,0,1,.7-4.72,7.69,7.69,0,0,1,1.93-3.05,7.14,7.14,0,0,1,2.92-1.61,13.63,13.63,0,0,1,7.17,0,7.08,7.08,0,0,1,2.79,1.55,7.23,7.23,0,0,1,1.83,2.83,11.87,11.87,0,0,1,.64,4.39l-.12,11a15.75,15.75,0,0,1-.58,4.15,11.12,11.12,0,0,1-1.6,3.42,8.92,8.92,0,0,1-2.56,2.45,8.42,8.42,0,0,1-3.48,1.23,10.17,10.17,0,0,1-2.69,0q0,7.89-.08,15.79Zm11.2-40c0-1.9-.67-2.84-2.05-2.81s-2.08,1-2.09,3q0,8.58-.08,17.17l1.47-.15a2.66,2.66,0,0,0,1.85-1.18,5.26,5.26,0,0,0,.8-3.1Q135.56,325.56,135.61,319.12Z"/><path class="cls-2" d="M144.17,319.68a12,12,0,0,1,.76-4.35,7.07,7.07,0,0,1,2-2.82,7.58,7.58,0,0,1,2.94-1.49,14.87,14.87,0,0,1,7.22,0,7.38,7.38,0,0,1,2.88,1.44,6.72,6.72,0,0,1,1.9,2.63,10.33,10.33,0,0,1,.65,4.08l-.39,26.11a11,11,0,0,1-.77,4.19,8.63,8.63,0,0,1-2,2.91,9.38,9.38,0,0,1-2.91,1.87,16.43,16.43,0,0,1-3.58,1,14,14,0,0,1-3.62.15,6.11,6.11,0,0,1-2.86-1,5.36,5.36,0,0,1-1.88-2.49,10.8,10.8,0,0,1-.65-4.24Q144,333.65,144.17,319.68Zm11.26-1.19c0-1.76-.65-2.63-2-2.6s-2.09.93-2.11,2.72q-.19,14.43-.4,28.91c0,1.79.65,2.58,2,2.39S155,348.74,155,347Q155.23,332.72,155.43,318.49Z"/><path class="cls-2" d="M176,351.05q.09-6.8.17-13.59c0-2.51-.83-3.71-2.59-3.62l-1.55.09q-.11,8.76-.23,17.53c-2.4.25-4.78.52-7.17.82q.25-16.63.49-33.24a10.52,10.52,0,0,1,.76-4.05,6.69,6.69,0,0,1,2-2.61,7.73,7.73,0,0,1,2.93-1.39,15.1,15.1,0,0,1,3.65-.42,14,14,0,0,1,3.48.41,7,7,0,0,1,2.73,1.37,6.15,6.15,0,0,1,1.79,2.49,10.07,10.07,0,0,1,.6,3.89L183,325a7.06,7.06,0,0,1-1.22,4.31,5.71,5.71,0,0,1-3.91,1.93,6.15,6.15,0,0,1,4,1.48,4.71,4.71,0,0,1,1.24,3.55q-.06,7.08-.14,14.18Q179.45,350.73,176,351.05Zm.41-33c0-1.65-.66-2.46-2.05-2.45s-2.09.86-2.11,2.52l-.15,11.33,1.54-.07a2.57,2.57,0,0,0,2-.88,4.35,4.35,0,0,0,.73-2.75Z"/><path class="cls-2" d="M189.85,350.09q.12-16.74.24-33.48l-5.71.05c0-1.67,0-3.34,0-5l18.43,0v4.92h-5.68l-.12,33.26C194.65,349.89,192.24,350,189.85,350.09Z"/><path class="cls-2" d="M215.37,349.94q0-6.62-.07-13.22c0-2.43-.9-3.67-2.67-3.69l-1.55,0q0,8.42,0,16.81-3.62-.07-7.25-.07,0-15.6,0-31.21a9,9,0,0,1,.71-3.79,6.19,6.19,0,0,1,1.93-2.46,8.08,8.08,0,0,1,2.91-1.31,16,16,0,0,1,3.64-.4,14.55,14.55,0,0,1,3.49.4,7.34,7.34,0,0,1,2.76,1.35,6.32,6.32,0,0,1,1.83,2.49,10.25,10.25,0,0,1,.67,3.87l.06,6.27a6.54,6.54,0,0,1-1.14,4.21,5.23,5.23,0,0,1-3.89,1.66,6.71,6.71,0,0,1,4,1.72,5,5,0,0,1,1.31,3.62q.06,7.05.13,14.1C220,350.13,217.69,350,215.37,349.94Zm-.17-32.13c0-1.6-.71-2.41-2.1-2.41s-2.08.79-2.08,2.39q0,5.43,0,10.88h1.55a2.44,2.44,0,0,0,1.95-.74,4,4,0,0,0,.68-2.64C215.22,322.8,215.21,320.31,215.2,317.81Z"/><path class="cls-2" d="M236.61,351.42l-.21-15.73c-1.39-.09-2.79-.17-4.19-.24q.1,7.77.19,15.56c-2.4-.21-4.8-.41-7.21-.57q-.16-16.15-.32-32.31a6.83,6.83,0,0,1,2.6-5.54,8.76,8.76,0,0,1,2.9-1.5,12.46,12.46,0,0,1,3.64-.52,12,12,0,0,1,3.59.53,8.66,8.66,0,0,1,2.91,1.56,7.37,7.37,0,0,1,2,2.5,7.62,7.62,0,0,1,.76,3.3q.24,16.86.48,33.76C241.37,351.93,239,351.66,236.61,351.42Zm-.45-33.32c0-1.68-.72-2.53-2.11-2.54s-2.07.8-2.05,2.46l.15,12.35,4.18.19Q236.26,324.34,236.16,318.1Z"/><path class="cls-2" d="M257.78,354.22q-.24-17.84-.49-35.62c0-1.79-.73-2.69-2.11-2.72s-2.07.84-2,2.6q.26,17.52.5,35.1c-2.36-.35-4.73-.69-7.11-1q-.24-16.77-.49-33.48a10.18,10.18,0,0,1,.65-4.05,6.44,6.44,0,0,1,1.9-2.63,7.58,7.58,0,0,1,2.89-1.41,14.52,14.52,0,0,1,3.64-.44,13.74,13.74,0,0,1,3.59.45,7.35,7.35,0,0,1,2.92,1.52,7.44,7.44,0,0,1,2,2.81,12.16,12.16,0,0,1,.76,4.38q.19,17.81.41,35.67Q261.29,354.79,257.78,354.22Z"/><path class="cls-2" d="M284.25,351.47c0,3.36-.72,5.58-2.16,6.63s-3.54,1.29-6.32.74a13.73,13.73,0,0,1-3.4-1.14,8.77,8.77,0,0,1-2.68-2.07,9.34,9.34,0,0,1-1.76-3.17,14.73,14.73,0,0,1-.66-4.52c0-2.41,0-4.83-.08-7.24l6.44.79.06,8.38c0,1.9.7,3,2.05,3.2a1.4,1.4,0,0,0,1.51-.53,4.94,4.94,0,0,0,.5-2.66c0-1.33,0-2.66,0-4a12.68,12.68,0,0,0-.36-2.75,7.68,7.68,0,0,0-1.22-2.66q-2.92-4.07-5.88-8a12.3,12.3,0,0,1-3-8.53c0-1.44,0-2.89-.05-4.33,0-3.42.66-5.77,2.09-7.09s3.58-2,6.46-2a11.7,11.7,0,0,1,3.5.49A6.38,6.38,0,0,1,282,312.7a7.73,7.73,0,0,1,1.77,3.06,15.59,15.59,0,0,1,.62,4.75v6.15l-6.45-.42c0-2.32,0-4.64,0-7,0-1.94-.69-2.92-2.06-2.95s-2,1-2,3.06c0,1,0,2.07,0,3.11,0,.63,0,1.18.08,1.65a6.79,6.79,0,0,0,.23,1.28,4.75,4.75,0,0,0,.46,1.08,11.44,11.44,0,0,0,.75,1.1q3.12,4.08,6.2,8.36a13.44,13.44,0,0,1,2,4.17,20.31,20.31,0,0,1,.67,5.51Z"/><path class="cls-4" d="M64,463.49a40,40,0,1,0,40,40A40,40,0,0,0,64,463.49Z"/><path class="cls-6" d="M64,465.3a38,38,0,0,1,25.71,9.93l-1.41.56-.77.81.19.95.92.14.56,1.39,1.6-.65.26,1.88h-.47l-1.32-.18-1.46.23-1.42,2-2,.33-.28,1.71.85.21-.25,1.12-2-.42-1.85.42-.37,1,.3,2.13,1.09.51,1.81,0,1.21-.1.39-1,1.9-2.48,1.26.25L89.62,485l.23.86,3,2.06-.37.51-1.37-.09.53.77.84.18,1-.42,0-1.2.44-.21-.35-.37-2-1.14L91,484.39H92.7l.53.54,1.47,1.25.07,1.51,1.5,1.62.56-2.2,1-.58.19,1.81,1,1.11h.42c.42,1.07.81,2.16,1.14,3.25H98.85L97,491.31l-2,.18v1.21h-.62l-.68-.49-3.48-.86V489.1l-4.36.35-1.37.72H82.7l-.83-.07-2.12,1.16v2.2l-4.31,3.11.35,1.32h.88l-.23,1.28-.61.23,0,3.29,3.73,4.25h1.63l.09-.26h2.92l.84-.79h1.64l.93.93,2.46.26-.32,3.27,2.74,4.82L91,517.93l.12,1.3,1.14,1.12v3.13l1.48,2v2A38.21,38.21,0,0,1,26,507.4h0c0-.3-.05-.6-.07-.9v0c-.09-1-.12-2-.12-3v-.67l0-.56,0-.55v-.33c0-.25,0-.49.05-.72l0-.18a37.85,37.85,0,0,1,3-12.11v2.09l1.63.79v3.08L32.05,497l1.25.18.17-.9L32,494l-.3-2.23h.88l.37,2.3,2.16,3.13-.56,1,1.37,2.09,3.41.86v-.56l1.35.21-.12,1,1.07.19,1.65.46L45.6,505l3,.23.3,2.43-2,1.42-.09,2.18-.3,1.32,2.94,3.69.24,1.28s1.06.27,1.2.27,2.39,1.74,2.39,1.74v6.66l.81.23-.55,3.09,1.37,1.81-.26,3.06,1.81,3.15,2.3,2,2.32,0,.23-.74-1.72-1.44.12-.69.3-.88L60,535l-1.16,0-.58-.72.95-.93.14-.69-1.07-.31.05-.65,1.53-.23,2.32-1.11.77-1.44,2.43-3.11-.55-2.43.76-1.28,2.23.05,1.51-1.18.48-4.69,1.67-2.13.28-1.35-1.51-.49-1-1.67-3.43,0-2.71-1-.14-2L62.05,506,59.59,506l-1.41-2.22-1.28-.61-.07.68-2.3.14-.83-1.19-2.41-.48-2,2.29L46.2,504l-.23-3.5-2.27-.4.93-1.71-.28-1-3,2-1.88-.21-.67-1.48.41-1.51,1-1.9,2.39-1.21h4.6v1.4l1.65.76-.14-2.39,1.2-1.2,2.39-1.58.19-1.11,2.39-2.49,2.55-1.41-.23-.19L59,483.28l.62.16.28.37.68-.72.16-.09-.72-.09-.74-.23V482l.39-.3.86,0,.37.19.35.67.42-.05v-.06l.11,0,1.19-.18.18-.61.67.19v.62l-.62.45h0l.09.69,2.16.67v0l.51,0,0-.93-1.71-.79-.1-.46,1.42-.46.07-1.37-1.49-.91L64.07,477l-2,1h-.74l.18-1.76-2.78-.65-1.14.86v2.67l-2.07.65-.83,1.71-.91.17v-2.23l-1.92-.26-1-.65-.39-1.41,3.48-2,1.69-.51.17,1.13,1,0,.07-.58,1-.14,0-.21-.44-.16-.1-.6,1.23-.12.75-.77,0,0h0l.21-.23,2.58-.33,1.11.95-3,1.6,3.78.88.49-1.25h1.65l.6-1.11-1.18-.28v-1.39l-3.64-1.63-2.53.28-1.44.74.09,1.84-1.48-.23-.24-1,1.44-1.3-2.6-.14-.74.23-.32.86,1,.19-.21,1-1.65.11-.25.65-2.39.05a6.91,6.91,0,0,0-.16-1.35l1.88,0,1.41-1.4-.76-.39-1.05,1-1.72-.09-1-1.44H47l-2.3,1.72h2.11l.19.62-.54.51,2.32.07.37.84-2.64-.09-.12-.65-1.64-.35-.89-.49H42.4A38,38,0,0,1,64,465.3Z"/><path class="cls-2" d="M40.75,545.26A176,176,0,0,0,14,559.38a233.85,233.85,0,0,1,40.33-9.32A49.75,49.75,0,0,1,40.75,545.26Z"/><path class="cls-2" d="M284,550.29V526.22c-33.09-11.18-82.7-14.86-134.43-8.32-14.34,1.81-28.29,4.14-41.6,6.93a50.38,50.38,0,0,1-7.17,10,403,403,0,0,1,50.2-3.91v2.9a445.41,445.41,0,0,0-51.9,2.78,50.24,50.24,0,0,1-16.32,10.74,339.29,339.29,0,0,1,42.71.64c70.2,5.46,133.71,22.61,158.51,44.68V559c-16-9.61-39.95-17-70.5-21.18v-4.35C242.65,536.61,266.49,542.45,284,550.29Zm-74.5-13c-13.76-1.74-28.8-2.86-45-3.28-3.49-.09-7-.14-10.5-.16v-3c7.15-.1,14.34,0,21.5.13q18,.46,34,2Z"/><path class="cls-2" d="M123.41,512.11V473.44a13.9,13.9,0,0,1,.7-4.72,7.69,7.69,0,0,1,1.93-3.05,7.14,7.14,0,0,1,2.92-1.61,13.63,13.63,0,0,1,7.17,0,7.08,7.08,0,0,1,2.79,1.55,7.23,7.23,0,0,1,1.83,2.83,11.87,11.87,0,0,1,.64,4.39l-.12,11a15.75,15.75,0,0,1-.58,4.15,11.12,11.12,0,0,1-1.6,3.42,8.92,8.92,0,0,1-2.56,2.45,8.42,8.42,0,0,1-3.48,1.23,10.17,10.17,0,0,1-2.69,0q0,7.89-.08,15.79Zm11.2-40c0-1.9-.67-2.84-2.05-2.81s-2.08,1-2.09,3q0,8.58-.08,17.17l1.47-.15a2.66,2.66,0,0,0,1.85-1.18,5.26,5.26,0,0,0,.8-3.1Q134.56,478.56,134.61,472.12Z"/><path class="cls-2" d="M143.17,472.68a11.77,11.77,0,0,1,.76-4.35,7.07,7.07,0,0,1,2-2.82,7.58,7.58,0,0,1,2.94-1.49,14.87,14.87,0,0,1,7.22,0,7.38,7.38,0,0,1,2.88,1.44,6.72,6.72,0,0,1,1.9,2.63,10.33,10.33,0,0,1,.65,4.08l-.39,26.11a11,11,0,0,1-.77,4.19,8.63,8.63,0,0,1-2,2.91,9.38,9.38,0,0,1-2.91,1.87,15.89,15.89,0,0,1-3.58,1,14,14,0,0,1-3.62.15,6.11,6.11,0,0,1-2.86-1,5.36,5.36,0,0,1-1.88-2.49,11,11,0,0,1-.65-4.24Q143,486.65,143.17,472.68Zm11.26-1.19c0-1.76-.65-2.63-2-2.6s-2.09.93-2.11,2.72q-.19,14.43-.4,28.91c0,1.79.65,2.58,2,2.39S154,501.74,154,500Q154.23,485.72,154.43,471.49Z"/><path class="cls-2" d="M175,504.05q.09-6.8.17-13.59c0-2.51-.83-3.71-2.59-3.62l-1.55.09q-.11,8.76-.23,17.53c-2.4.25-4.78.52-7.17.82q.25-16.63.49-33.24a10.52,10.52,0,0,1,.76-4.05,6.69,6.69,0,0,1,2-2.61,7.73,7.73,0,0,1,2.93-1.39,15.1,15.1,0,0,1,3.65-.42,14,14,0,0,1,3.48.41,7,7,0,0,1,2.73,1.37,6.15,6.15,0,0,1,1.79,2.49,10.07,10.07,0,0,1,.6,3.89L182,478a7.06,7.06,0,0,1-1.22,4.31,5.71,5.71,0,0,1-3.91,1.93,6.15,6.15,0,0,1,4,1.48,4.71,4.71,0,0,1,1.24,3.55q-.08,7.08-.14,14.18Q178.45,503.73,175,504.05Zm.41-33c0-1.65-.66-2.46-2.05-2.45s-2.09.86-2.11,2.52l-.15,11.33,1.54-.07a2.57,2.57,0,0,0,2-.88,4.35,4.35,0,0,0,.73-2.75Z"/><path class="cls-2" d="M188.85,503.09q.12-16.74.24-33.48l-5.71.05c0-1.67,0-3.34,0-5l18.43,0v4.92h-5.68l-.12,33.26C193.65,502.89,191.24,503,188.85,503.09Z"/><path class="cls-2" d="M214.37,502.94q0-6.62-.07-13.22c0-2.43-.9-3.67-2.67-3.69l-1.55,0q0,8.42,0,16.81-3.62-.07-7.25-.07,0-15.6,0-31.21a9,9,0,0,1,.71-3.79,6.19,6.19,0,0,1,1.93-2.46,8.08,8.08,0,0,1,2.91-1.31,16,16,0,0,1,3.64-.4,14.55,14.55,0,0,1,3.49.4,7.2,7.2,0,0,1,2.76,1.35,6.32,6.32,0,0,1,1.83,2.49,10.25,10.25,0,0,1,.67,3.87l.06,6.27a6.54,6.54,0,0,1-1.14,4.21,5.23,5.23,0,0,1-3.89,1.66,6.71,6.71,0,0,1,4,1.72,5,5,0,0,1,1.31,3.62q.06,7.05.13,14.1C219,503.13,216.69,503,214.37,502.94Zm-.17-32.13c0-1.6-.71-2.41-2.1-2.41s-2.08.79-2.08,2.39q0,5.43,0,10.88h1.55a2.44,2.44,0,0,0,1.95-.74,4,4,0,0,0,.68-2.64C214.22,475.8,214.21,473.31,214.2,470.81Z"/><path class="cls-2" d="M235.61,504.42l-.21-15.73c-1.39-.09-2.79-.17-4.19-.24q.1,7.77.19,15.56-3.6-.31-7.21-.57-.15-16.15-.32-32.31a6.83,6.83,0,0,1,2.6-5.54,8.76,8.76,0,0,1,2.9-1.5,12.46,12.46,0,0,1,3.64-.52,12,12,0,0,1,3.59.53,8.66,8.66,0,0,1,2.91,1.56,7.47,7.47,0,0,1,2,2.5,7.62,7.62,0,0,1,.76,3.3q.24,16.86.48,33.76C240.37,504.93,238,504.66,235.61,504.42Zm-.45-33.32c0-1.68-.72-2.53-2.11-2.54s-2.07.8-2.05,2.46l.15,12.35,4.18.19Q235.26,477.34,235.16,471.1Z"/><path class="cls-2" d="M256.78,507.22q-.24-17.84-.49-35.62c0-1.79-.73-2.69-2.11-2.72s-2.07.85-2,2.6q.26,17.52.5,35.1c-2.36-.35-4.73-.69-7.11-1q-.24-16.77-.49-33.48a10.18,10.18,0,0,1,.65-4.05,6.44,6.44,0,0,1,1.9-2.63,7.58,7.58,0,0,1,2.89-1.41,14.52,14.52,0,0,1,3.64-.44,13.74,13.74,0,0,1,3.59.45,7.35,7.35,0,0,1,2.92,1.52,7.44,7.44,0,0,1,2,2.81,12.16,12.16,0,0,1,.76,4.38q.19,17.81.41,35.67Q260.29,507.79,256.78,507.22Z"/><path class="cls-2" d="M283.25,504.47c0,3.36-.72,5.58-2.16,6.63s-3.54,1.29-6.32.74a13.73,13.73,0,0,1-3.4-1.14,8.77,8.77,0,0,1-2.68-2.07,9.25,9.25,0,0,1-1.76-3.17,14.73,14.73,0,0,1-.66-4.52c0-2.41,0-4.83-.08-7.24l6.44.79.06,8.38c0,1.9.7,3,2.05,3.2a1.38,1.38,0,0,0,1.51-.53,4.94,4.94,0,0,0,.5-2.66c0-1.33,0-2.66,0-4a12.75,12.75,0,0,0-.36-2.75,7.68,7.68,0,0,0-1.22-2.66q-2.92-4.07-5.88-8a12.3,12.3,0,0,1-3-8.53c0-1.45,0-2.89-.05-4.33,0-3.42.66-5.77,2.09-7.09s3.58-2,6.46-2a11.7,11.7,0,0,1,3.5.49A6.38,6.38,0,0,1,281,465.7a7.8,7.8,0,0,1,1.77,3.06,15.59,15.59,0,0,1,.62,4.75v6.15l-6.45-.42q0-3.48,0-7c0-1.94-.69-2.92-2.06-2.95s-2,1-2,3.06c0,1,0,2.07,0,3.11,0,.63,0,1.18.08,1.65a6.65,6.65,0,0,0,.23,1.28,4.75,4.75,0,0,0,.46,1.08,11.44,11.44,0,0,0,.75,1.1q3.12,4.08,6.2,8.36a13.44,13.44,0,0,1,2,4.17,20.31,20.31,0,0,1,.67,5.51Z"/><path class="cls-6" d="M365,460.49a40,40,0,1,0,40,40A40,40,0,0,0,365,460.49Z"/><path class="cls-4" d="M365,462.3a38,38,0,0,1,25.71,9.93l-1.41.56-.77.81.19.95.92.14.56,1.39,1.6-.65.26,1.88h-.47l-1.32-.18-1.46.23-1.42,2-2,.33-.28,1.71.85.21-.25,1.12-2-.42-1.85.42-.37,1,.3,2.13,1.09.51,1.81,0,1.21-.1.39-1,1.9-2.48,1.26.25,1.23-1.11.23.86,3,2.06-.37.51-1.37-.09.53.77.84.18,1-.42,0-1.2.44-.21-.35-.37-2-1.14-.53-1.51h1.69l.53.54,1.47,1.25.07,1.51,1.5,1.62.56-2.2,1-.58.19,1.81,1,1.11h.42c.42,1.07.81,2.16,1.14,3.25h-1.79l-1.9-1.39-2,.18v1.21h-.62l-.68-.49-3.48-.86V486.1l-4.36.35-1.37.72H383.7l-.83-.07-2.12,1.16v2.2l-4.31,3.11.35,1.32h.88l-.23,1.28-.61.23,0,3.29,3.73,4.25h1.63l.09-.26h2.92l.84-.79h1.64l.93.93,2.46.26-.32,3.27,2.74,4.82L392,514.93l.12,1.3,1.14,1.12v3.13l1.48,2v2a38.21,38.21,0,0,1-67.77-20h0c0-.3-.05-.6-.07-.9v0c-.09-1-.12-2-.12-3v-.67l0-.56,0-.55v-.33c0-.25,0-.49.05-.72l0-.18a37.85,37.85,0,0,1,3-12.11v2.09l1.63.79v3.08l1.55,2.65,1.25.18.17-.9L333,491l-.3-2.23h.88l.37,2.3,2.16,3.13-.56,1,1.37,2.09,3.41.86v-.56l1.35.21-.12,1,1.07.19,1.65.46L346.6,502l3,.23.3,2.43-2,1.42-.09,2.18-.3,1.32,2.94,3.69.24,1.28s1.06.27,1.2.27,2.39,1.74,2.39,1.74v6.66l.81.23-.55,3.09,1.37,1.81-.26,3.06,1.81,3.15,2.3,2,2.32,0,.23-.74-1.72-1.44.12-.69.3-.88L361,532l-1.16,0-.58-.72,1-.93.14-.69-1.07-.31,0-.65,1.53-.23,2.32-1.11.77-1.44,2.43-3.11-.55-2.43.76-1.28,2.23.05,1.51-1.18.48-4.69,1.67-2.13.28-1.35-1.51-.49-1-1.67-3.43,0-2.71-1-.14-2-.91-1.58-2.46-.05-1.41-2.22-1.28-.61-.07.68-2.3.14-.83-1.19-2.41-.48-2,2.29L347.2,501l-.23-3.5-2.27-.4.93-1.71-.28-1-3,2-1.88-.21-.67-1.48.41-1.51,1-1.9,2.39-1.21h4.6v1.4l1.65.76-.14-2.39,1.2-1.2,2.39-1.58.19-1.11,2.39-2.49,2.55-1.41-.23-.19,1.74-1.62.62.16.28.37.68-.72.16-.09-.72-.09-.74-.23V479l.39-.3.86,0,.37.19.35.67.42-.05v-.06l.11,0,1.19-.18.18-.61.67.19v.62l-.62.45h0l.09.69,2.16.67v0l.51,0,0-.93-1.71-.79-.1-.46,1.42-.46.07-1.37-1.49-.91-.09-2.29-2,1h-.74l.18-1.76-2.78-.65-1.14.86v2.67l-2.07.65-.83,1.71-.91.17v-2.23l-1.92-.26-1-.65-.39-1.41,3.48-2,1.69-.51.17,1.13.95,0,.07-.58,1-.14,0-.21-.44-.16-.1-.6,1.23-.12.75-.77,0,0h0l.21-.23,2.58-.33,1.11.95-3,1.6,3.78.88.49-1.25h1.65l.6-1.11-1.18-.28v-1.39l-3.64-1.63-2.53.28-1.44.74.09,1.84-1.48-.23-.24-1,1.44-1.3-2.6-.14-.74.23-.32.86,1,.19-.21,1-1.65.11-.25.65-2.39.05a6.91,6.91,0,0,0-.16-1.35l1.88,0,1.41-1.4-.76-.39-1,1-1.72-.09-1-1.44H348l-2.3,1.72h2.11l.19.62-.54.51,2.32.07.37.84-2.64-.09-.12-.65-1.64-.35-.89-.49H343.4A38,38,0,0,1,365,462.3Z"/><path class="cls-3" d="M341.75,542.26A176,176,0,0,0,315,556.38a233.85,233.85,0,0,1,40.33-9.32A49.75,49.75,0,0,1,341.75,542.26Z"/><path class="cls-3" d="M585,547.29V523.22c-33.09-11.18-82.7-14.86-134.43-8.32-14.34,1.81-28.29,4.14-41.6,6.93a50.38,50.38,0,0,1-7.17,10,403,403,0,0,1,50.2-3.91v2.9a445.41,445.41,0,0,0-51.9,2.78,50.24,50.24,0,0,1-16.32,10.74,339.29,339.29,0,0,1,42.71.64c70.2,5.46,133.71,22.61,158.51,44.68V556c-16-9.61-40-17-70.5-21.18v-4.35C543.65,533.61,567.49,539.45,585,547.29Zm-74.5-13c-13.76-1.74-28.8-2.86-45-3.28-3.49-.09-7-.14-10.5-.16v-3c7.15-.1,14.34,0,21.5.13q18,.46,34,2Z"/><path class="cls-3" d="M424.41,509.11V470.44a13.9,13.9,0,0,1,.7-4.72,7.69,7.69,0,0,1,1.93-3.05,7.14,7.14,0,0,1,2.92-1.61,13.63,13.63,0,0,1,7.17,0,7.08,7.08,0,0,1,2.79,1.55,7.23,7.23,0,0,1,1.83,2.83,11.87,11.87,0,0,1,.64,4.39l-.12,11a15.75,15.75,0,0,1-.58,4.15,11.12,11.12,0,0,1-1.6,3.42,8.92,8.92,0,0,1-2.56,2.45,8.42,8.42,0,0,1-3.48,1.23,10.17,10.17,0,0,1-2.69,0q0,7.89-.08,15.79Zm11.2-40c0-1.9-.67-2.84-2.05-2.81s-2.08,1-2.09,3q0,8.58-.08,17.17l1.47-.15a2.66,2.66,0,0,0,1.85-1.18,5.26,5.26,0,0,0,.8-3.1Q435.56,475.56,435.61,469.12Z"/><path class="cls-3" d="M444.17,469.68a12,12,0,0,1,.76-4.35,7.07,7.07,0,0,1,2-2.82,7.58,7.58,0,0,1,2.94-1.49,14.87,14.87,0,0,1,7.22,0,7.38,7.38,0,0,1,2.88,1.44,6.72,6.72,0,0,1,1.9,2.63,10.33,10.33,0,0,1,.65,4.08l-.39,26.11a11,11,0,0,1-.77,4.19,8.63,8.63,0,0,1-2,2.91,9.38,9.38,0,0,1-2.91,1.87,15.89,15.89,0,0,1-3.58,1,14,14,0,0,1-3.62.15,6.11,6.11,0,0,1-2.86-1,5.36,5.36,0,0,1-1.88-2.49,11,11,0,0,1-.65-4.24Q444,483.65,444.17,469.68Zm11.26-1.19c0-1.76-.65-2.63-2-2.6s-2.09.93-2.11,2.72q-.19,14.43-.4,28.91c0,1.79.65,2.58,2,2.39S455,498.74,455,497Q455.23,482.7,455.43,468.49Z"/><path class="cls-3" d="M476,501.05q.09-6.8.17-13.59c0-2.51-.83-3.71-2.59-3.62l-1.55.09q-.11,8.76-.23,17.53-3.59.38-7.17.82.24-16.63.49-33.24a10.52,10.52,0,0,1,.76-4.05,6.69,6.69,0,0,1,2-2.61,7.73,7.73,0,0,1,2.93-1.39,15.16,15.16,0,0,1,3.65-.42,14,14,0,0,1,3.48.41,7,7,0,0,1,2.73,1.37,6.15,6.15,0,0,1,1.79,2.49,10.07,10.07,0,0,1,.6,3.89L483,475a7.06,7.06,0,0,1-1.22,4.31,5.76,5.76,0,0,1-3.91,1.93,6.15,6.15,0,0,1,4,1.48,4.71,4.71,0,0,1,1.24,3.55q-.07,7.08-.14,14.18Q479.45,500.73,476,501.05Zm.41-33c0-1.65-.66-2.46-2-2.45s-2.09.86-2.11,2.52l-.15,11.33,1.54-.07a2.53,2.53,0,0,0,1.95-.88,4.35,4.35,0,0,0,.73-2.75Z"/><path class="cls-3" d="M489.85,500.09l.24-33.48-5.71.05c0-1.67,0-3.33,0-5l18.43,0v4.92h-5.68l-.12,33.26C494.65,499.89,492.24,500,489.85,500.09Z"/><path class="cls-3" d="M515.37,499.94q0-6.62-.07-13.22c0-2.43-.9-3.67-2.67-3.69l-1.55,0q0,8.42.05,16.81-3.61-.07-7.25-.07,0-15.6,0-31.21a9.12,9.12,0,0,1,.71-3.79,6.19,6.19,0,0,1,1.93-2.46,8.08,8.08,0,0,1,2.91-1.31,16,16,0,0,1,3.64-.4,14.55,14.55,0,0,1,3.49.4,7.2,7.2,0,0,1,2.76,1.35,6.32,6.32,0,0,1,1.83,2.49,10.25,10.25,0,0,1,.67,3.87l.06,6.27a6.52,6.52,0,0,1-1.14,4.21,5.23,5.23,0,0,1-3.89,1.66,6.71,6.71,0,0,1,4,1.72,5,5,0,0,1,1.31,3.62q.06,7.05.13,14.1C520,500.13,517.69,500,515.37,499.94Zm-.17-32.13c0-1.6-.71-2.41-2.1-2.41s-2.08.79-2.08,2.39q0,5.43,0,10.88h1.55a2.44,2.44,0,0,0,1.95-.74,4,4,0,0,0,.68-2.64C515.22,472.8,515.21,470.31,515.2,467.81Z"/><path class="cls-3" d="M536.61,501.42l-.21-15.73c-1.39-.08-2.79-.17-4.19-.24q.1,7.77.19,15.56c-2.4-.22-4.8-.4-7.21-.57q-.16-16.15-.32-32.31a6.93,6.93,0,0,1,.68-3.15,6.86,6.86,0,0,1,1.92-2.39,8.76,8.76,0,0,1,2.9-1.5,12.46,12.46,0,0,1,3.64-.52,12,12,0,0,1,3.59.53,8.66,8.66,0,0,1,2.91,1.56,7.47,7.47,0,0,1,2,2.5,7.62,7.62,0,0,1,.76,3.3q.24,16.86.48,33.76C541.37,501.93,539,501.66,536.61,501.42Zm-.45-33.32c0-1.68-.72-2.53-2.11-2.54s-2.07.81-2,2.46l.15,12.35,4.18.19Q536.25,474.34,536.16,468.1Z"/><path class="cls-3" d="M557.78,504.22q-.24-17.84-.49-35.62c0-1.79-.73-2.69-2.11-2.72s-2.07.84-2,2.6q.25,17.52.5,35.1c-2.36-.35-4.73-.69-7.11-1q-.24-16.77-.49-33.48a10.18,10.18,0,0,1,.65-4.05,6.44,6.44,0,0,1,1.9-2.63,7.58,7.58,0,0,1,2.89-1.41,14.52,14.52,0,0,1,3.64-.44,13.74,13.74,0,0,1,3.59.45,7.35,7.35,0,0,1,2.92,1.52,7.44,7.44,0,0,1,2,2.81,12.16,12.16,0,0,1,.76,4.38q.2,17.81.41,35.67Q561.29,504.79,557.78,504.22Z"/><path class="cls-3" d="M584.25,501.47c0,3.36-.72,5.58-2.16,6.63s-3.54,1.29-6.32.74a13.73,13.73,0,0,1-3.4-1.14,8.77,8.77,0,0,1-2.68-2.07,9.25,9.25,0,0,1-1.76-3.17,14.73,14.73,0,0,1-.66-4.52c0-2.41-.06-4.83-.08-7.24l6.44.79.06,8.38c0,1.9.7,3,2,3.2a1.4,1.4,0,0,0,1.51-.53,4.94,4.94,0,0,0,.5-2.66c0-1.33,0-2.66,0-4a12.75,12.75,0,0,0-.36-2.75,7.68,7.68,0,0,0-1.22-2.66q-2.92-4.07-5.88-8a12.3,12.3,0,0,1-3-8.53c0-1.44,0-2.89,0-4.33,0-3.41.66-5.77,2.09-7.09s3.58-2,6.46-2a11.7,11.7,0,0,1,3.5.49A6.48,6.48,0,0,1,582,462.7a7.8,7.8,0,0,1,1.77,3.06,15.59,15.59,0,0,1,.62,4.75v6.15l-6.45-.42c0-2.32,0-4.64,0-7,0-1.94-.69-2.92-2.06-2.95s-2,1-2,3.06c0,1,0,2.07,0,3.11,0,.63,0,1.18.08,1.65a6.79,6.79,0,0,0,.23,1.28,4.75,4.75,0,0,0,.46,1.08,11.44,11.44,0,0,0,.75,1.1q3.12,4.08,6.2,8.36a13.44,13.44,0,0,1,2,4.17,20.31,20.31,0,0,1,.67,5.51Z"/><rect class="cls-2" x="300" y="300" width="300" height="150"/><path class="cls-5" d="M365,310.49a40,40,0,1,0,40,40A40,40,0,0,0,365,310.49Z"/><path class="cls-4" d="M365,312.3a38,38,0,0,1,25.71,9.93l-1.41.56-.77.81.19.95.92.14.56,1.39,1.6-.65.26,1.88h-.47l-1.32-.18-1.46.23-1.42,2-2,.33-.28,1.71.85.21-.25,1.12-2-.42-1.85.42-.37,1,.3,2.13,1.09.51,1.81,0,1.21-.1.39-1,1.9-2.48,1.26.25,1.23-1.11.23.86,3,2.06-.37.51-1.37-.09.53.77.84.18,1-.42,0-1.2.44-.21-.35-.37-2-1.14-.53-1.51h1.69l.53.54,1.47,1.25.07,1.51,1.5,1.62.56-2.2,1-.58.19,1.81,1,1.11h.42c.42,1.07.81,2.16,1.14,3.25h-1.79l-1.9-1.39-2,.18v1.21h-.62l-.68-.49-3.48-.86V336.1l-4.36.35-1.37.72H383.7l-.83-.07-2.12,1.16v2.2l-4.31,3.11.35,1.32h.88l-.23,1.28-.61.23,0,3.29,3.73,4.25h1.63l.09-.26h2.92l.84-.79h1.64l.93.93,2.46.26-.32,3.27,2.74,4.82L392,364.93l.12,1.3,1.14,1.12v3.13l1.48,2v2a38.21,38.21,0,0,1-67.77-20h0c0-.3-.05-.6-.07-.9v0c-.09-1-.12-2-.12-3v-.67l0-.56,0-.55v-.33c0-.25,0-.49.05-.72l0-.18a37.85,37.85,0,0,1,3-12.11v2.09l1.63.79v3.08l1.55,2.65,1.25.18.17-.9L333,341l-.3-2.23h.88l.37,2.3,2.16,3.13-.56,1,1.37,2.09,3.41.86v-.56l1.35.21-.12,1,1.07.19,1.65.46L346.6,352l3,.23.3,2.43-2,1.42-.09,2.18-.3,1.32,2.94,3.69.24,1.28s1.06.27,1.2.27,2.39,1.74,2.39,1.74v6.66l.81.23-.55,3.09,1.37,1.81-.26,3.06,1.81,3.15,2.3,2,2.32,0,.23-.74-1.72-1.44.12-.69.3-.88L361,382l-1.16,0-.58-.72,1-.93.14-.69-1.07-.31,0-.65,1.53-.23,2.32-1.11.77-1.44,2.43-3.11-.55-2.43.76-1.28,2.23.05,1.51-1.18.48-4.69,1.67-2.13.28-1.35-1.51-.49-1-1.67-3.43,0-2.71-1-.14-2-.91-1.58-2.46-.05-1.41-2.22-1.28-.61-.07.68-2.3.14-.83-1.19-2.41-.48-2,2.29L347.2,351l-.23-3.5-2.27-.4.93-1.71-.28-1-3,2-1.88-.21-.67-1.48.41-1.51,1-1.9,2.39-1.21h4.6v1.4l1.65.76-.14-2.39,1.2-1.2,2.39-1.58.19-1.11,2.39-2.49,2.55-1.41-.23-.19,1.74-1.62.62.16.28.37.68-.72.16-.09-.72-.09-.74-.23V329l.39-.3.86,0,.37.19.35.67.42-.05v-.06l.11,0,1.19-.18.18-.61.67.19v.62l-.62.45h0l.09.69,2.16.67v0l.51,0,0-.93-1.71-.79-.1-.46,1.42-.46.07-1.37-1.49-.91-.09-2.29-2,1h-.74l.18-1.76-2.78-.65-1.14.86v2.67l-2.07.65-.83,1.71-.91.17v-2.23l-1.92-.26-1-.65-.39-1.41,3.48-2,1.69-.51.17,1.13.95,0,.07-.58,1-.14,0-.21-.44-.16-.1-.6,1.23-.12.75-.77,0,0h0l.21-.23,2.58-.33,1.11.95-3,1.6,3.78.88.49-1.25h1.65l.6-1.11-1.18-.28v-1.39l-3.64-1.63-2.53.28-1.44.74.09,1.84-1.48-.23-.24-1,1.44-1.3-2.6-.14-.74.23-.32.86,1,.19-.21,1-1.65.11-.25.65-2.39.05a6.91,6.91,0,0,0-.16-1.35l1.88,0,1.41-1.4-.76-.39-1,1-1.72-.09-1-1.44H348l-2.3,1.72h2.11l.19.62-.54.51,2.32.07.37.84-2.64-.09-.12-.65-1.64-.35-.89-.49H343.4A38,38,0,0,1,365,312.3Z"/><path class="cls-1" d="M341.75,392.26A176,176,0,0,0,315,406.38a233.85,233.85,0,0,1,40.33-9.32A49.75,49.75,0,0,1,341.75,392.26Z"/><path class="cls-1" d="M585,397.29V373.22c-33.09-11.18-82.7-14.86-134.43-8.32-14.34,1.81-28.29,4.14-41.6,6.93a50.38,50.38,0,0,1-7.17,10,403,403,0,0,1,50.2-3.91v2.9a445.41,445.41,0,0,0-51.9,2.78,50.24,50.24,0,0,1-16.32,10.74,339.29,339.29,0,0,1,42.71.64c70.2,5.46,133.71,22.61,158.51,44.68V406c-16-9.61-40-17-70.5-21.18v-4.35C543.65,383.61,567.49,389.45,585,397.29Zm-74.5-13c-13.76-1.74-28.8-2.86-45-3.28-3.49-.09-7-.14-10.5-.16v-3c7.15-.1,14.34-.05,21.5.13q18,.47,34,2.05Z"/><path class="cls-1" d="M424.41,359.11V320.44a13.9,13.9,0,0,1,.7-4.72,7.62,7.62,0,0,1,1.93-3.05,7.14,7.14,0,0,1,2.92-1.61,13.63,13.63,0,0,1,7.17,0,7.08,7.08,0,0,1,2.79,1.55,7.23,7.23,0,0,1,1.83,2.83,11.87,11.87,0,0,1,.64,4.39l-.12,11a15.75,15.75,0,0,1-.58,4.15,11.23,11.23,0,0,1-1.6,3.42,8.92,8.92,0,0,1-2.56,2.45,8.42,8.42,0,0,1-3.48,1.23,10.17,10.17,0,0,1-2.69,0q0,7.89-.08,15.79Zm11.2-40c0-1.9-.67-2.84-2.05-2.81s-2.08,1-2.09,3q0,8.58-.08,17.17l1.47-.15a2.66,2.66,0,0,0,1.85-1.18,5.26,5.26,0,0,0,.8-3.1Q435.56,325.56,435.61,319.12Z"/><path class="cls-1" d="M444.17,319.68a11.77,11.77,0,0,1,.76-4.35,7.07,7.07,0,0,1,2-2.82,7.58,7.58,0,0,1,2.94-1.49,14.87,14.87,0,0,1,7.22,0,7.38,7.38,0,0,1,2.88,1.44,6.72,6.72,0,0,1,1.9,2.63,10.33,10.33,0,0,1,.65,4.08l-.39,26.11a11,11,0,0,1-.77,4.19,8.63,8.63,0,0,1-2,2.91,9.38,9.38,0,0,1-2.91,1.87,16.43,16.43,0,0,1-3.58,1,14,14,0,0,1-3.62.15,6.11,6.11,0,0,1-2.86-1,5.36,5.36,0,0,1-1.88-2.49,11,11,0,0,1-.65-4.24Q444,333.65,444.17,319.68Zm11.26-1.19c0-1.76-.65-2.63-2-2.6s-2.09.93-2.11,2.72q-.19,14.43-.4,28.91c0,1.79.65,2.58,2,2.39S455,348.74,455,347Q455.23,332.72,455.43,318.49Z"/><path class="cls-1" d="M476,351.05q.09-6.8.17-13.59c0-2.51-.83-3.71-2.59-3.62l-1.55.09q-.11,8.76-.23,17.53c-2.4.25-4.78.52-7.17.82q.25-16.63.49-33.24a10.52,10.52,0,0,1,.76-4.05,6.69,6.69,0,0,1,2-2.61,7.73,7.73,0,0,1,2.93-1.39,15.1,15.1,0,0,1,3.65-.42,14,14,0,0,1,3.48.41,7,7,0,0,1,2.73,1.37,6.15,6.15,0,0,1,1.79,2.49,10.07,10.07,0,0,1,.6,3.89L483,325a7.06,7.06,0,0,1-1.22,4.31,5.76,5.76,0,0,1-3.91,1.93,6.15,6.15,0,0,1,4,1.48,4.71,4.71,0,0,1,1.24,3.55q-.07,7.08-.14,14.18Q479.45,350.73,476,351.05Zm.41-33c0-1.65-.66-2.46-2-2.45s-2.09.86-2.11,2.52l-.15,11.33,1.54-.07a2.57,2.57,0,0,0,1.95-.88,4.35,4.35,0,0,0,.73-2.75Z"/><path class="cls-1" d="M489.85,350.09l.24-33.48-5.71.05c0-1.67,0-3.34,0-5l18.43,0v4.92h-5.68l-.12,33.26C494.65,349.89,492.24,350,489.85,350.09Z"/><path class="cls-1" d="M515.37,349.94q0-6.62-.07-13.22c0-2.43-.9-3.67-2.67-3.69l-1.55,0q0,8.42.05,16.81-3.61-.07-7.25-.07,0-15.6,0-31.21a9,9,0,0,1,.71-3.79,6.19,6.19,0,0,1,1.93-2.46,8.08,8.08,0,0,1,2.91-1.31,16,16,0,0,1,3.64-.4,14.55,14.55,0,0,1,3.49.4,7.2,7.2,0,0,1,2.76,1.35,6.32,6.32,0,0,1,1.83,2.49,10.25,10.25,0,0,1,.67,3.87l.06,6.27a6.54,6.54,0,0,1-1.14,4.21,5.23,5.23,0,0,1-3.89,1.66,6.71,6.71,0,0,1,4,1.72,5,5,0,0,1,1.31,3.62q.06,7.05.13,14.1C520,350.13,517.69,350,515.37,349.94Zm-.17-32.13c0-1.6-.71-2.41-2.1-2.41s-2.08.79-2.08,2.39q0,5.43,0,10.88h1.55a2.44,2.44,0,0,0,1.95-.74,4,4,0,0,0,.68-2.64C515.22,322.8,515.21,320.31,515.2,317.81Z"/><path class="cls-1" d="M536.61,351.42l-.21-15.73c-1.39-.09-2.79-.17-4.19-.24q.1,7.77.19,15.56-3.6-.31-7.21-.57-.15-16.15-.32-32.31a6.83,6.83,0,0,1,2.6-5.54,8.76,8.76,0,0,1,2.9-1.5,12.46,12.46,0,0,1,3.64-.52,12,12,0,0,1,3.59.53,8.66,8.66,0,0,1,2.91,1.56,7.47,7.47,0,0,1,2,2.5,7.62,7.62,0,0,1,.76,3.3q.24,16.86.48,33.76C541.37,351.93,539,351.66,536.61,351.42Zm-.45-33.32c0-1.68-.72-2.53-2.11-2.54s-2.07.8-2,2.46l.15,12.35,4.18.19Q536.25,324.34,536.16,318.1Z"/><path class="cls-1" d="M557.78,354.22q-.24-17.84-.49-35.62c0-1.79-.73-2.69-2.11-2.72s-2.07.84-2,2.6q.25,17.52.5,35.1c-2.36-.35-4.73-.69-7.11-1q-.24-16.77-.49-33.48a10.18,10.18,0,0,1,.65-4.05,6.44,6.44,0,0,1,1.9-2.63,7.58,7.58,0,0,1,2.89-1.41,14.52,14.52,0,0,1,3.64-.44,13.74,13.74,0,0,1,3.59.45,7.35,7.35,0,0,1,2.92,1.52,7.44,7.44,0,0,1,2,2.81,12.16,12.16,0,0,1,.76,4.38q.2,17.81.41,35.67Q561.29,354.79,557.78,354.22Z"/><path class="cls-1" d="M584.25,351.47c0,3.36-.72,5.58-2.16,6.63s-3.54,1.29-6.32.74a13.73,13.73,0,0,1-3.4-1.14,8.77,8.77,0,0,1-2.68-2.07,9.34,9.34,0,0,1-1.76-3.17,14.73,14.73,0,0,1-.66-4.52c0-2.42,0-4.83-.08-7.24l6.44.79.06,8.38c0,1.9.7,3,2,3.2a1.38,1.38,0,0,0,1.51-.53,4.94,4.94,0,0,0,.5-2.66c0-1.33,0-2.66,0-4a12.6,12.6,0,0,0-.36-2.75,7.77,7.77,0,0,0-1.22-2.66q-2.92-4.07-5.88-8a12.3,12.3,0,0,1-3-8.53c0-1.45,0-2.89,0-4.33,0-3.41.66-5.77,2.09-7.09s3.58-2,6.46-2a11.7,11.7,0,0,1,3.5.49A6.38,6.38,0,0,1,582,312.7a7.8,7.8,0,0,1,1.77,3.06,15.59,15.59,0,0,1,.62,4.75v6.15l-6.45-.42q0-3.48,0-7c0-1.94-.69-2.92-2.06-2.95s-2,1-2,3.06c0,1,0,2.07,0,3.11,0,.63,0,1.18.08,1.65a6.79,6.79,0,0,0,.23,1.28,4.75,4.75,0,0,0,.46,1.08,11.44,11.44,0,0,0,.75,1.1q3.12,4.08,6.2,8.36a13.44,13.44,0,0,1,2,4.17,20.31,20.31,0,0,1,.67,5.51Z"/><path class="cls-7" d="M155.19,39.6a68.15,68.15,0,1,0,68.14,68.12A68.13,68.13,0,0,0,155.19,39.6Z"/><path class="cls-8" d="M155.11,42.68A64.82,64.82,0,0,1,198.9,59.59l-2.41.95-1.3,1.38.31,1.62,1.59.24.94,2.37,2.73-1.1.44,3.2h-.79l-2.26-.32-2.49.4-2.41,3.4-3.44.55-.47,2.92,1.46.36-.43,1.9-3.4-.72-3.16.72-.64,1.73.52,3.64,1.85.87,3.09,0,2.05-.16.68-1.66,3.24-4.23,2.13.44,2.1-1.9.39,1.46,5.18,3.52-.63.87-2.34-.16.91,1.31,1.43.31,1.7-.71,0-2,.75-.36-.6-.63-3.47-1.94-.91-2.57h2.88l.91.91,2.49,2.13.12,2.57,2.57,2.77,1-3.75,1.78-1,.31,3.08,1.74,1.9h.71c.72,1.81,1.39,3.67,1.94,5.53h-3L211.32,87l-3.4.31v2.06h-1.07l-1.15-.83-5.93-1.46V83.22l-7.43.6L190,85h-3l-1.43-.12-3.59,2v3.75L174.67,96l.6,2.25h1.5l-.4,2.17-1,.4-.08,5.61,6.36,7.23h2.77l.16-.43h5l1.42-1.34h2.81l1.58,1.58,4.19.43-.56,5.57,4.67,8.22-2.49,4.7.19,2.22,1.94,1.89v5.34l2.53,3.4v3.36A65.11,65.11,0,0,1,90.36,114.4h0l-.12-1.54v0c-.16-1.66-.2-3.36-.2-5.1v-1.14l0-1,0-.95v-.55c0-.43,0-.83.08-1.23l0-.31A64.38,64.38,0,0,1,95.34,82v3.56l2.77,1.34v5.26l2.64,4.5,2.14.32.28-1.54-2.54-3.92-.51-3.79h1.5l.64,3.91,3.67,5.34-1,1.74,2.34,3.55,5.81,1.47v-1l2.29.35-.2,1.66,1.82.32,2.81.79,4,4.5,5.06.4.51,4.15-3.48,2.41-.15,3.71-.52,2.26,5,6.28.4,2.17s1.82.48,2,.48,4.07,3,4.07,3v11.34l1.39.4-.95,5.25,2.33,3.09-.43,5.21,3.08,5.38,3.91,3.43,4,0,.39-1.26-2.92-2.45.19-1.19.52-1.5.12-1.5-2-.08-1-1.22,1.62-1.58.24-1.19-1.82-.51.08-1.11,2.61-.4,3.95-1.89,1.31-2.45,4.15-5.3-.95-4.15,1.3-2.17,3.8.08,2.57-2,.83-8,2.84-3.64.48-2.29-2.57-.83-1.74-2.84-5.85,0L153.64,118l-.23-3.32L151.87,112l-4.2-.08-2.41-3.79-2.17-1-.12,1.15-3.91.24-1.43-2-4.11-.83-3.36,3.91-5.29-.91-.4-6L120.6,102l1.58-2.92-.48-1.7-5.06,3.4-3.2-.36-1.14-2.52.71-2.57,1.74-3.24,4.07-2.06h7.83v2.37l2.8,1.31-.23-4.07,2.05-2.06,4.07-2.69.32-1.89,4.07-4.23,4.35-2.41-.4-.32,3-2.76,1.06.27.48.64L149.33,73l.28-.16-1.22-.16-1.27-.39V71.05l.67-.51,1.47,0,.63.32.59,1.14.71-.08v-.12l.2.08,2-.31.31-1,1.15.32v1.06l-1.07.75h0l.16,1.19L157.64,75v0l.87-.07,0-1.58L155.62,72l-.16-.79,2.41-.79.12-2.33-2.53-1.54-.16-3.91-3.47,1.7h-1.27l.32-3-4.75-1.1-1.93,1.46v4.54l-3.52,1.11-1.43,2.92-1.54.28V66.75l-3.28-.44-1.66-1.11-.67-2.41L138,59.32l2.88-.87.28,1.93,1.62-.08.12-1,1.7-.24,0-.36-.75-.27-.16-1,2.1-.2,1.26-1.3,0-.08h0l.36-.4,4.38-.55,1.9,1.62-5.06,2.73,6.44,1.5.84-2.13h2.8l1-1.9-2-.48V53.86l-6.2-2.76-4.31.47-2.45,1.27.16,3.12-2.53-.4-.4-1.7,2.45-2.21-4.43-.24-1.26.4-.55,1.46,1.66.32-.36,1.62-2.81.19-.43,1.11-4.07.08a11.2,11.2,0,0,0-.28-2.29l3.2-.08,2.41-2.37-1.3-.67-1.78,1.73-2.92-.15-1.78-2.45h-3.76l-3.91,2.92h3.59l.32,1.07-.91.87,3.95.12.64,1.42-4.51-.16-.2-1.11-2.8-.59L120.8,54h-2.42a64.78,64.78,0,0,1,36.73-11.34Z"/><path class="cls-9" d="M115.57,178.91A298.52,298.52,0,0,0,70,203a399.28,399.28,0,0,1,68.71-15.89A84.68,84.68,0,0,1,115.57,178.91Z"/><path class="cls-9" d="M530,187.48v-41c-56.37-19.05-140.9-25.32-229-14.18-24.43,3.09-48.19,7.06-70.88,11.81a85.23,85.23,0,0,1-12.21,17,684.66,684.66,0,0,1,85.53-6.66v4.94A759.48,759.48,0,0,0,215,164.15a85.34,85.34,0,0,1-27.8,18.29,578.88,578.88,0,0,1,72.77,1.1c119.59,9.3,227.8,38.52,270.05,76.12V202.29c-27.28-16.36-68.07-28.91-120.11-36.08V158.8C459.56,164.16,500.16,174.11,530,187.48ZM403.07,165.31c-23.45-3-49.06-4.88-76.66-5.59-6-.16-11.92-.24-17.89-.28v-5.06c12.18-.17,24.44-.09,36.63.23q30.63.78,57.92,3.49Z"/><path class="cls-1" d="M256.4,122.43V56.54a23.65,23.65,0,0,1,1.2-8,13,13,0,0,1,3.29-5.2,12.3,12.3,0,0,1,5-2.74,22,22,0,0,1,6.2-.83,21.7,21.7,0,0,1,6,.8,11.79,11.79,0,0,1,4.75,2.64A12.41,12.41,0,0,1,286,48,20.52,20.52,0,0,1,287,55.46l-.21,18.69a26.71,26.71,0,0,1-1,7.07A19.27,19.27,0,0,1,283.12,87a15.4,15.4,0,0,1-4.37,4.18,14.33,14.33,0,0,1-5.93,2.09,17.68,17.68,0,0,1-4.58-.06q-.08,13.44-.14,26.89Zm19.08-68.14c0-3.24-1.14-4.83-3.49-4.78s-3.54,1.73-3.55,5l-.15,29.27,2.51-.27a4.49,4.49,0,0,0,3.15-2,8.86,8.86,0,0,0,1.36-5.27Q275.4,65.27,275.48,54.29Z"/><path class="cls-1" d="M290.07,55.25a20.55,20.55,0,0,1,1.29-7.42,12.11,12.11,0,0,1,3.36-4.8,12.94,12.94,0,0,1,5-2.54,25.63,25.63,0,0,1,12.31,0,12.66,12.66,0,0,1,4.9,2.46,11.45,11.45,0,0,1,3.24,4.48,17.47,17.47,0,0,1,1.1,7q-.33,22.22-.65,44.47a19,19,0,0,1-1.31,7.14,14.55,14.55,0,0,1-3.38,5,15.93,15.93,0,0,1-5,3.19,27.31,27.31,0,0,1-6.09,1.7,24.1,24.1,0,0,1-6.16.25,10.24,10.24,0,0,1-4.88-1.7,9.12,9.12,0,0,1-3.2-4.24,18.58,18.58,0,0,1-1.11-7.22Q289.79,79.06,290.07,55.25Zm19.18-2q.08-4.49-3.47-4.43c-2.36,0-3.56,1.59-3.6,4.64q-.35,24.58-.68,49.25c0,3.06,1.11,4.41,3.46,4.07s3.55-2,3.6-5Q308.91,77.46,309.25,53.21Z"/><path class="cls-1" d="M344.28,108.69q.15-11.58.29-23.16c.06-4.26-1.42-6.32-4.41-6.15l-2.64.15q-.19,14.93-.4,29.86-6.12.63-12.21,1.4.42-28.35.83-56.63a17.72,17.72,0,0,1,1.3-6.9,11.38,11.38,0,0,1,3.36-4.46,13.33,13.33,0,0,1,5-2.36,26.06,26.06,0,0,1,6.21-.71,23.84,23.84,0,0,1,5.94.7,12,12,0,0,1,4.65,2.32,10.66,10.66,0,0,1,3,4.26,17.22,17.22,0,0,1,1,6.61c0,3.59-.07,7.17-.11,10.76,0,3.15-.72,5.59-2.07,7.34s-3.57,2.84-6.67,3.29c3.09.24,5.35,1.09,6.79,2.51a8.07,8.07,0,0,1,2.11,6l-.24,24.17C352.13,108,348.21,108.33,344.28,108.69ZM345,52.4c0-2.8-1.13-4.2-3.49-4.17s-3.56,1.46-3.6,4.3q-.13,9.64-.26,19.3l2.63-.12a4.44,4.44,0,0,0,3.33-1.51q1.19-1.41,1.23-4.68Q344.91,59,345,52.4Z"/><path class="cls-1" d="M367.88,107.05l.42-57c-3.25,0-6.49.05-9.73.09,0-2.84.05-5.68.08-8.52q15.69,0,31.39,0,0,4.19,0,8.38l-9.66,0-.21,56.66Q374,106.76,367.88,107.05Z"/><path class="cls-1" d="M411.38,106.8q-.06-11.26-.13-22.51c0-4.15-1.54-6.26-4.55-6.31l-2.64,0,.09,28.64c-4.11-.09-8.24-.14-12.36-.13q0-26.58,0-53.17A15.42,15.42,0,0,1,393,46.83a10.57,10.57,0,0,1,3.29-4.19,13.65,13.65,0,0,1,5-2.23,27,27,0,0,1,6.2-.68,24.05,24.05,0,0,1,5.95.69,12,12,0,0,1,4.69,2.29A10.84,10.84,0,0,1,421.23,47a17.34,17.34,0,0,1,1.15,6.59q0,5.34.1,10.68c0,3.13-.62,5.53-1.94,7.18S417,74,413.91,74.22c3.1.44,5.39,1.42,6.85,2.94A8.64,8.64,0,0,1,423,83.32l.21,24Q417.3,107,411.38,106.8Zm-.31-54.74q0-4.1-3.57-4.11c-2.37,0-3.54,1.35-3.53,4.08L404,70.56l2.64,0A4.18,4.18,0,0,0,410,69.31c.78-.86,1.17-2.36,1.15-4.49Q411.11,58.45,411.07,52.06Z"/><path class="cls-1" d="M447.56,109.32q-.18-13.41-.36-26.79c-2.38-.15-4.75-.29-7.13-.42q.17,13.24.32,26.52-6.13-.55-12.29-1-.27-27.54-.54-55a11.69,11.69,0,0,1,1.16-5.37A11.85,11.85,0,0,1,432,43.17a14.73,14.73,0,0,1,4.94-2.55,20.92,20.92,0,0,1,6.2-.89,20.22,20.22,0,0,1,6.12.9,14.9,14.9,0,0,1,5,2.65,12.77,12.77,0,0,1,3.36,4.26,13,13,0,0,1,1.29,5.63q.42,28.72.84,57.52Q453.64,109.94,447.56,109.32Zm-.76-56.77q-.06-4.29-3.6-4.33c-2.37,0-3.53,1.38-3.5,4.2q.14,10.52.26,21,3.57.15,7.12.33Q446.95,63.17,446.8,52.55Z"/><path class="cls-1" d="M483.62,114.1q-.4-30.39-.83-60.7-.06-4.56-3.6-4.62c-2.36-.05-3.52,1.43-3.47,4.42q.42,29.86.86,59.81-6-.92-12.12-1.71-.42-28.56-.83-57a17.38,17.38,0,0,1,1.1-6.91A11.1,11.1,0,0,1,468,42.87a13.24,13.24,0,0,1,4.94-2.4,24.85,24.85,0,0,1,6.2-.74,23.46,23.46,0,0,1,6.11.76,12,12,0,0,1,8.32,7.38,20.2,20.2,0,0,1,1.3,7.46q.36,30.35.71,60.77Q489.6,115.07,483.62,114.1Z"/><path class="cls-1" d="M528.72,109.41c0,5.72-1.23,9.5-3.69,11.29s-6,2.19-10.75,1.26a22.75,22.75,0,0,1-5.8-1.95,14.54,14.54,0,0,1-4.56-3.52,15.73,15.73,0,0,1-3-5.39,25.22,25.22,0,0,1-1.12-7.71q-.07-6.17-.13-12.33,5.49.66,11,1.35.06,7.14.11,14.27c0,3.24,1.19,5.06,3.49,5.46a2.38,2.38,0,0,0,2.58-.92c.57-.81.85-2.32.84-4.52l0-6.81A20.73,20.73,0,0,0,517,95.2a12.72,12.72,0,0,0-2.07-4.53q-5-6.94-10-13.56a24.24,24.24,0,0,1-3.86-6.62,24.14,24.14,0,0,1-1.2-7.92q0-3.69-.08-7.37c-.06-5.82,1.12-9.83,3.55-12.08s6.1-3.39,11-3.39a20,20,0,0,1,6,.83,11,11,0,0,1,4.64,2.8,13.13,13.13,0,0,1,3,5.2,26.61,26.61,0,0,1,1,8.09V67.14l-11-.71-.06-11.87c0-3.3-1.18-5-3.51-5S511,51.22,511,54.75c0,1.76,0,3.53,0,5.29,0,1.08.05,2,.13,2.82a11.55,11.55,0,0,0,.4,2.19,7.88,7.88,0,0,0,.78,1.83,20.18,20.18,0,0,0,1.27,1.88Q518.9,75.71,524.15,83a22.39,22.39,0,0,1,3.43,7.1,34.23,34.23,0,0,1,1.14,9.39Z"/></g></g></svg>